<svg width="80" height="80" viewBox="0 0 80 80" fill="none" xmlns="http://www.w3.org/2000/svg">
<g id="Paper">
<g id="Rectangle" opacity="0.747442">
<rect width="80" height="80" rx="40" fill="#232586" style="mix-blend-mode:multiply"/>
</g>
<mask id="mask0_2_11679" style="mask-type:alpha" maskUnits="userSpaceOnUse" x="0" y="0" width="80" height="80">
<g id="Rectangle_2">
<rect width="80" height="80" rx="40" fill="white"/>
<rect width="80" height="80" rx="40" stroke="white"/>
</g>
</mask>
<g mask="url(#mask0_2_11679)">
<path id="Shape" fill-rule="evenodd" clip-rule="evenodd" d="M41.8274 17.5039C42.5306 18.1822 42.9913 19.2409 42.9913 20.4598V21.0331C43.476 20.8088 43.9879 20.7106 44.5044 20.7106C45.3911 20.7106 46.2936 21.0148 46.9984 21.696C47.7032 22.3771 48.1623 23.4463 48.1623 24.6699V27.0167C48.647 26.7921 49.1754 26.6943 49.692 26.6943C50.576 26.6943 51.4663 27.0012 52.1695 27.6796C52.8726 28.358 53.3333 29.4166 53.3333 30.6356V46.9741C53.3333 51.9359 51.5877 55.8005 48.9438 58.3502C46.3 60.8998 42.8047 62.1482 39.3334 62.1482C35.862 62.1482 32.3834 60.8998 29.7395 58.3502C27.0957 55.8005 25.3333 51.9359 25.3333 46.9741V36.888C25.3333 35.6679 25.8087 34.6098 26.5139 33.932C27.2191 33.2541 28.1059 32.9466 28.9913 32.9466C29.5088 32.9466 30.0355 33.0448 30.521 33.2691V24.652C30.521 23.433 30.9817 22.3743 31.6849 21.696C32.388 21.0176 33.2951 20.6927 34.179 20.6927C34.6969 20.6927 35.2063 20.8072 35.692 21.0331V20.4598C35.692 19.2409 36.1528 18.1822 36.8559 17.5039C37.559 16.8255 38.4495 16.5185 39.3334 16.5185C40.2447 16.5395 41.2465 16.9583 41.8274 17.5039H41.8274ZM39.3334 18.8116C38.9259 18.8116 38.5346 18.9497 38.2693 19.2058C38.0038 19.4618 37.8203 19.81 37.8203 20.4598V38.7511C37.8283 39.3568 37.3184 39.914 36.7561 39.914C36.1939 39.914 35.6841 39.3568 35.692 38.7511V24.7415C35.7303 24.1925 35.4653 23.7562 35.2431 23.3979C34.9777 23.1419 34.5865 22.9858 34.179 22.9858C33.7715 22.9858 33.3636 23.1419 33.0982 23.3979C32.8328 23.6539 32.6492 24.0021 32.6492 24.652C32.6492 31.9915 32.6492 39.3159 32.6492 46.6516C32.6572 47.2574 32.1474 47.8146 31.5851 47.8146C31.0229 47.8146 30.5131 47.2574 30.521 46.6516V36.9954C30.5619 36.446 30.2973 36.0072 30.0721 35.6518C29.8052 35.3952 29.4021 35.2397 28.9913 35.2397C28.5806 35.2397 28.1941 35.3952 27.9272 35.6518C27.6603 35.9083 27.4616 36.2391 27.4616 36.888V46.9741C27.4616 51.3665 28.9468 54.5208 31.1529 56.6482C33.3589 58.7757 36.3382 59.855 39.3334 59.855C42.3285 59.855 45.3079 58.7757 47.5139 56.6482C49.7199 54.5208 51.2051 51.3665 51.2051 46.9741V30.6356C51.2051 29.9857 51.0215 29.6555 50.7562 29.3994C50.4908 29.1434 50.0995 28.9874 49.692 28.9874C49.2845 28.9874 48.8933 29.1434 48.6279 29.3994C48.2026 29.837 48.1673 30.2284 48.1623 30.761V40.8113C48.1703 41.4171 47.6604 41.9742 47.0982 41.9742C46.536 41.9742 46.0262 41.4171 46.0341 40.8113C46.0341 35.4261 46.0341 30.0506 46.0341 24.6699C46.0341 24.0144 45.8524 23.6562 45.5852 23.3979C45.3178 23.1396 44.9138 22.9858 44.5044 22.9858C44.095 22.9858 43.7076 23.1396 43.4402 23.3979C43.1729 23.6562 42.9913 24.0144 42.9913 24.6699V38.9303C42.9993 39.536 42.4894 40.0931 41.9272 40.0931C41.3649 40.0931 40.8551 39.536 40.8631 38.9303C40.8577 32.7684 40.8631 26.6096 40.8631 20.4598C40.8631 19.81 40.6629 19.4618 40.3975 19.2058C40.1321 18.9497 39.7408 18.8116 39.3334 18.8116Z" fill="white"/>
</g>
</g>
</svg>
