<svg width="80" height="80" viewBox="0 0 80 80" fill="none" xmlns="http://www.w3.org/2000/svg">
<g id="Scissors">
<g id="Rectangle Copy 2" opacity="0.747442">
<rect width="80" height="80" rx="40" fill="#232586" style="mix-blend-mode:multiply"/>
</g>
<mask id="mask0_2_11685" style="mask-type:alpha" maskUnits="userSpaceOnUse" x="0" y="0" width="80" height="80">
<g id="Rectangle Copy 2_2">
<rect width="80" height="80" rx="40" fill="white"/>
<rect width="80" height="80" rx="40" stroke="white"/>
</g>
</mask>
<g mask="url(#mask0_2_11685)">
<path id="Fill 1" fill-rule="evenodd" clip-rule="evenodd" d="M29.5595 20.7661C29.3816 19.9136 29.9342 19.0751 30.7923 18.8979C31.6516 18.7228 32.4944 19.2702 32.6728 20.1233L36.3398 37.6553C36.4586 38.2221 37.0164 38.587 37.588 38.4685C37.7395 38.4376 37.8746 38.3742 37.9918 38.2892C38.3343 38.1518 38.5966 37.8425 38.6467 37.4524L40.9383 19.4789C40.9917 19.0605 41.2054 18.6876 41.5411 18.4291C41.8773 18.1706 42.2937 18.0569 42.7148 18.1109C43.136 18.1638 43.5113 18.3767 43.7715 18.7102C44.0317 19.0432 44.1457 19.4574 44.0923 19.8758L41.8277 37.6406C41.7754 38.0496 41.9702 38.4303 42.2942 38.6437C42.4927 38.8885 42.7866 39.0411 43.1059 39.0411C43.6881 39.0411 44.1615 38.5708 44.1615 37.9924V36.6816C44.1615 35.6696 44.9906 34.8464 46.0087 34.8464C47.0273 34.8464 47.8559 35.6696 47.8559 36.6816V40.0898C47.8559 40.6682 48.3299 41.1385 48.9115 41.1385C49.4936 41.1385 49.967 40.6682 49.967 40.0898V38.1786C50.1417 38.1015 50.5888 37.9924 50.8532 37.9924C51.6063 37.9924 52.2666 38.6049 52.2666 39.3033C52.2666 44.1724 51.866 52.693 50.792 54.827C49.2192 57.9527 47.4596 60.5398 41.8303 60.5398C36.6728 60.5398 32.202 58.0995 29.2417 53.6677C27.3512 50.8378 26.4925 45.0229 29.4502 42.3524C29.7505 42.0813 30.367 41.7127 30.472 41.6503L31.2072 46.695C31.2837 47.2172 31.735 47.5937 32.2506 47.5937C32.3007 47.5937 32.3519 47.59 32.4031 47.5832C32.98 47.4999 33.38 46.9682 33.2967 46.3951L29.5705 20.8291L29.5595 20.7661ZM50.8189 35.8945C50.6183 35.8945 50.2626 35.9344 49.843 36.0408C49.5316 34.1705 47.8744 32.7485 45.9369 32.7485C45.4588 32.7485 44.989 32.8444 44.5462 33.0106L46.1866 20.1396C46.3111 19.1653 46.0457 18.2011 45.4398 17.425C44.8344 16.6485 43.9609 16.1535 42.9803 16.0303C41.9992 15.9055 41.0291 16.1697 40.2475 16.7717C39.4664 17.3731 38.9676 18.2414 38.8436 19.2157L37.2513 31.7045L34.7396 19.6965C34.3248 17.7118 32.3614 16.4319 30.3633 16.8446C28.3767 17.2546 27.0921 19.1852 27.4858 21.1589L30.1289 39.2965C29.2565 39.7752 28.2347 40.4967 28.1798 40.536C25.0475 42.775 24.0495 49.6486 27.509 54.826C30.8731 59.8629 35.9635 62.6366 41.8424 62.6366C48.6592 62.6366 50.9376 59.2415 52.6872 55.764C54.3624 52.436 54.3814 39.8376 54.3814 39.3033C54.3814 37.456 52.75 35.8951 50.8189 35.8945Z" fill="white"/>
</g>
</g>
</svg>
