<svg width="80" height="80" viewBox="0 0 80 80" fill="none" xmlns="http://www.w3.org/2000/svg">
<g id="Stone">
<g id="Rectangle Copy" opacity="0.747442">
<rect width="80" height="80" rx="40" fill="#232586" style="mix-blend-mode:multiply"/>
</g>
<mask id="mask0_2_11691" style="mask-type:alpha" maskUnits="userSpaceOnUse" x="0" y="0" width="80" height="80">
<g id="Rectangle Copy_2">
<rect width="80" height="80" rx="40" fill="white"/>
<rect width="80" height="80" rx="40" stroke="white"/>
</g>
</mask>
<g mask="url(#mask0_2_11691)">
<g id="Shape">
<path fill-rule="evenodd" clip-rule="evenodd" d="M52.3905 48.7515C54.1386 45.2239 54.1587 31.7151 54.1587 31.1417C54.1587 29.3044 52.5562 27.7519 50.6592 27.7513C50.3882 27.7513 49.8932 27.8276 49.3865 27.9886C49.2208 25.9604 47.5315 24.3615 45.48 24.3615C44.5393 24.3615 43.6753 24.6977 42.9995 25.2564C42.4474 23.7463 41.0067 22.6667 39.3208 22.6667C37.4966 22.6667 35.5772 23.7147 35.0089 25.6807C34.3935 25.1977 33.6186 24.9265 32.7395 24.9265C30.5077 24.9265 28.8878 26.7084 28.8878 29.166L28.894 31.4207C28.418 31.6625 27.6834 32.1207 26.7646 32.9625C23.7248 35.7506 22.7298 42.4929 26.1627 47.7109C29.6784 53.056 34.996 56 41.1361 56C48.2073 56 50.5735 52.4193 52.3905 48.7515ZM50.6956 29.4468C51.6654 29.4468 52.475 30.2388 52.475 31.1417C52.475 34.9359 52.1861 45.3606 50.8809 47.9945C49.1698 51.4481 47.2487 54.3062 41.1226 54.3062C35.5638 54.3062 30.7288 51.6317 27.5351 46.7753C25.4852 43.659 24.5294 37.2184 27.801 34.2184C28.1734 33.8766 28.9545 33.4134 28.9545 33.4134L28.9461 39.3342C28.9461 40.0404 29.1857 40.4641 29.6891 40.4641C30.1924 40.4641 30.4382 40.0641 30.4382 39.3342V29.1643C30.4382 27.8988 31.1841 26.622 32.6846 26.622C34.2356 26.622 34.809 27.9914 34.809 29.1643C34.809 29.6321 35.23 30.0117 35.6937 30.0117C36.1573 30.0117 36.5974 29.6321 36.5974 29.1643V26.9044C36.5974 25.0389 38.2715 24.3621 39.397 24.3621C40.6322 24.3621 41.6367 25.3756 41.6367 26.622V29.7292C41.6367 30.197 42.0129 30.5767 42.4765 30.5767C42.9402 30.5767 43.3164 30.197 43.3164 29.7292V28.3168C43.3164 27.0705 44.3209 26.057 45.5561 26.057C46.7913 26.057 47.7958 27.0705 47.7958 28.3168V31.9891C47.7958 32.4569 48.172 32.8365 48.6357 32.8365C49.0993 32.8365 49.4755 32.4569 49.4755 31.9891V29.8106C49.4755 29.6524 50.3149 29.4468 50.6956 29.4468Z" fill="white"/>
<path d="M52.3905 48.7515L52.1665 48.6406L52.1665 48.6405L52.3905 48.7515ZM50.6592 27.7513V27.5013H50.6593L50.6592 27.7513ZM49.3865 27.9886L49.4622 28.2269L49.1629 28.322L49.1373 28.009L49.3865 27.9886ZM42.9995 25.2564L43.1588 25.4491L42.8862 25.6745L42.7647 25.3423L42.9995 25.2564ZM35.0089 25.6807L35.249 25.7502L35.1461 26.1063L34.8545 25.8774L35.0089 25.6807ZM28.8878 29.166L28.6378 29.1667V29.166H28.8878ZM28.894 31.4207L29.144 31.4201L29.1444 31.5739L29.0072 31.6436L28.894 31.4207ZM26.7646 32.9625L26.5956 32.7783L26.5957 32.7782L26.7646 32.9625ZM26.1627 47.7109L26.3715 47.5735L26.3716 47.5735L26.1627 47.7109ZM50.8809 47.9945L50.6569 47.8835L50.6569 47.8835L50.8809 47.9945ZM27.5351 46.7753L27.7439 46.6379L27.7439 46.6379L27.5351 46.7753ZM27.801 34.2184L27.9701 34.4026L27.97 34.4027L27.801 34.2184ZM28.9545 33.4134L28.8269 33.1983L29.2051 32.9741L29.2045 33.4137L28.9545 33.4134ZM28.9461 39.3342H28.6961V39.3338L28.9461 39.3342ZM54.4087 31.1417C54.4087 31.4302 54.4037 34.9562 54.1797 38.8531C54.0678 40.8013 53.9009 42.846 53.6518 44.627C53.4042 46.3982 53.0714 47.9406 52.6145 48.8625L52.1665 48.6405C52.5837 47.7987 52.9089 46.3296 53.1567 44.5578C53.403 42.7958 53.569 40.7661 53.6805 38.8244C53.9037 34.9416 53.9087 31.4266 53.9087 31.1417H54.4087ZM50.6593 27.5013C52.6867 27.5019 54.4087 29.1589 54.4087 31.1417H53.9087C53.9087 29.4499 52.4257 28.0018 50.6591 28.0013L50.6593 27.5013ZM49.3108 27.7503C49.8345 27.5839 50.3557 27.5013 50.6592 27.5013V28.0013C50.4207 28.0013 49.9519 28.0713 49.4622 28.2269L49.3108 27.7503ZM45.48 24.1115C47.6647 24.1115 49.4596 25.8133 49.6357 27.9682L49.1373 28.009C48.982 26.1075 47.3983 24.6115 45.48 24.6115V24.1115ZM42.8402 25.0638C43.5588 24.4696 44.4786 24.1115 45.48 24.1115V24.6115C44.6 24.6115 43.7918 24.9258 43.1588 25.4491L42.8402 25.0638ZM39.3208 22.4167C41.1164 22.4167 42.6478 23.5664 43.2343 25.1706L42.7647 25.3423C42.247 23.9262 40.897 22.9167 39.3208 22.9167V22.4167ZM34.7687 25.6113C35.3754 23.5127 37.4144 22.4167 39.3208 22.4167V22.9167C37.5788 22.9167 35.779 23.9167 35.249 25.7502L34.7687 25.6113ZM32.7395 24.6765C33.6718 24.6765 34.5017 24.9648 35.1632 25.4841L34.8545 25.8774C34.2853 25.4306 33.5654 25.1765 32.7395 25.1765V24.6765ZM28.6378 29.166C28.6378 26.5934 30.3476 24.6765 32.7395 24.6765V25.1765C30.6677 25.1765 29.1378 26.8234 29.1378 29.166H28.6378ZM28.644 31.4214L28.6378 29.1667L29.1378 29.1653L29.144 31.4201L28.644 31.4214ZM26.5957 32.7782C27.5303 31.9219 28.2835 31.4505 28.7807 31.1979L29.0072 31.6436C28.5526 31.8746 27.8365 32.3195 26.9335 33.1469L26.5957 32.7782ZM25.9538 47.8483C24.2041 45.1886 23.5838 42.1426 23.7871 39.407C23.9899 36.6768 25.0161 34.227 26.5956 32.7783L26.9336 33.1468C25.4733 34.4861 24.4821 36.8015 24.2857 39.444C24.0898 42.081 24.6884 45.0151 26.3715 47.5735L25.9538 47.8483ZM41.1361 56.25C34.9077 56.25 29.5135 53.2601 25.9538 47.8482L26.3716 47.5735C29.8434 52.8518 35.0843 55.75 41.1361 55.75V56.25ZM52.6145 48.8625C51.7031 50.7024 50.6373 52.557 48.8892 53.9468C47.1345 55.342 44.7172 56.25 41.1361 56.25V55.75C44.6262 55.75 46.9277 54.8676 48.5781 53.5555C50.2352 52.238 51.261 50.4684 52.1665 48.6406L52.6145 48.8625ZM52.225 31.1417C52.225 30.3863 51.5369 29.6968 50.6956 29.6968V29.1968C51.7939 29.1968 52.725 30.0914 52.725 31.1417H52.225ZM50.6569 47.8835C50.964 47.2639 51.2227 46.1541 51.4334 44.7466C51.6426 43.3488 51.8006 41.6876 51.918 39.986C52.1529 36.5833 52.225 33.0344 52.225 31.1417H52.725C52.725 33.0432 52.6527 36.6038 52.4168 40.0204C52.2989 41.7286 52.1399 43.4045 51.9279 44.8207C51.7173 46.2271 51.4505 47.4081 51.105 48.1055L50.6569 47.8835ZM41.1226 54.0562C44.1447 54.0562 46.0976 53.3523 47.503 52.2488C48.9157 51.1397 49.8033 49.6065 50.6569 47.8835L51.105 48.1055C50.2475 49.8361 49.319 51.4587 47.8118 52.6421C46.2974 53.8311 44.2267 54.5562 41.1226 54.5562V54.0562ZM27.7439 46.6379C30.8939 51.4277 35.6522 54.0562 41.1226 54.0562V54.5562C35.4754 54.5562 30.5638 51.8357 27.3262 46.9127L27.7439 46.6379ZM27.97 34.4027C26.4103 35.8329 25.8374 38.106 25.9223 40.4441C26.0071 42.7794 26.7474 45.1229 27.7439 46.6379L27.3262 46.9127C26.2729 45.3114 25.5103 42.8764 25.4226 40.4623C25.3351 38.0511 25.9201 35.604 27.6321 34.0342L27.97 34.4027ZM28.9545 33.4134C29.082 33.6284 29.082 33.6284 29.082 33.6284C29.082 33.6284 29.082 33.6284 29.082 33.6284C29.082 33.6284 29.082 33.6284 29.0819 33.6284C29.0819 33.6285 29.0818 33.6285 29.0816 33.6286C29.0813 33.6288 29.0808 33.6291 29.0801 33.6295C29.0788 33.6303 29.0767 33.6315 29.0739 33.6332C29.0684 33.6365 29.0601 33.6415 29.0494 33.648C29.0279 33.6609 28.9966 33.6799 28.9579 33.7039C28.8803 33.7517 28.773 33.8191 28.6544 33.8968C28.4133 34.0549 28.14 34.2467 27.9701 34.4026L27.632 34.0343C27.8344 33.8484 28.1378 33.6376 28.3803 33.4787C28.5036 33.3978 28.6148 33.328 28.6953 33.2783C28.7356 33.2535 28.7682 33.2336 28.7909 33.2199C28.8023 33.2131 28.8112 33.2078 28.8172 33.2041C28.8203 33.2023 28.8226 33.2009 28.8243 33.1999C28.8251 33.1994 28.8257 33.1991 28.8262 33.1988C28.8264 33.1987 28.8266 33.1986 28.8267 33.1985C28.8267 33.1984 28.8268 33.1984 28.8268 33.1984C28.8269 33.1984 28.8269 33.1984 28.8269 33.1984C28.8269 33.1984 28.8269 33.1983 28.9545 33.4134ZM28.6961 39.3338L28.7045 33.413L29.2045 33.4137L29.1961 39.3345L28.6961 39.3338ZM29.6891 40.7141C29.3536 40.7141 29.0872 40.5658 28.9175 40.2976C28.7584 40.046 28.6961 39.7086 28.6961 39.3342H29.1961C29.1961 39.666 29.2535 39.8935 29.3401 40.0303C29.4161 40.1505 29.5212 40.2141 29.6891 40.2141V40.7141ZM30.6882 39.3342C30.6882 39.7198 30.6246 40.0591 30.462 40.3092C30.2881 40.5765 30.0189 40.7141 29.6891 40.7141V40.2141C29.8626 40.2141 29.968 40.1517 30.0428 40.0366C30.129 39.9041 30.1882 39.6785 30.1882 39.3342H30.6882ZM30.6882 29.1643V39.3342H30.1882V29.1643H30.6882ZM32.6846 26.872C32.014 26.872 31.5239 27.1536 31.1955 27.5727C30.8619 27.9986 30.6882 28.577 30.6882 29.1643H30.1882C30.1882 28.486 30.3875 27.7933 30.8019 27.2644C31.2216 26.7288 31.8547 26.372 32.6846 26.372V26.872ZM34.559 29.1643C34.559 28.6129 34.4233 28.0312 34.1226 27.5952C33.8296 27.1704 33.3737 26.872 32.6846 26.872V26.372C33.5466 26.372 34.1528 26.7583 34.5342 27.3114C34.908 27.8533 35.059 28.5428 35.059 29.1643H34.559ZM35.6937 30.2617C35.1068 30.2617 34.559 29.7845 34.559 29.1643H35.059C35.059 29.4796 35.3533 29.7617 35.6937 29.7617V30.2617ZM36.8474 29.1643C36.8474 29.791 36.2735 30.2617 35.6937 30.2617V29.7617C36.0411 29.7617 36.3474 29.4731 36.3474 29.1643H36.8474ZM36.8474 26.9044V29.1643H36.3474V26.9044H36.8474ZM39.397 24.6121C38.8771 24.6121 38.2307 24.77 37.7211 25.1366C37.2215 25.4961 36.8474 26.0588 36.8474 26.9044H36.3474C36.3474 25.8845 36.8103 25.1761 37.4291 24.7308C38.038 24.2927 38.7914 24.1121 39.397 24.1121V24.6121ZM41.3867 26.622C41.3867 25.5116 40.492 24.6121 39.397 24.6121V24.1121C40.7723 24.1121 41.8867 25.2397 41.8867 26.622H41.3867ZM41.3867 29.7292V26.622H41.8867V29.7292H41.3867ZM42.4765 30.8267C41.8727 30.8267 41.3867 30.333 41.3867 29.7292H41.8867C41.8867 30.0611 42.1531 30.3267 42.4765 30.3267V30.8267ZM43.5664 29.7292C43.5664 30.333 43.0803 30.8267 42.4765 30.8267V30.3267C42.8 30.3267 43.0664 30.0611 43.0664 29.7292H43.5664ZM43.5664 28.3168V29.7292H43.0664V28.3168H43.5664ZM45.5561 26.307C44.4611 26.307 43.5664 27.2065 43.5664 28.3168H43.0664C43.0664 26.9346 44.1807 25.807 45.5561 25.807V26.307ZM47.5458 28.3168C47.5458 27.2065 46.6511 26.307 45.5561 26.307V25.807C46.9315 25.807 48.0458 26.9346 48.0458 28.3168H47.5458ZM47.5458 31.9891V28.3168H48.0458V31.9891H47.5458ZM48.6357 33.0865C48.0319 33.0865 47.5458 32.5928 47.5458 31.9891H48.0458C48.0458 32.3209 48.3122 32.5865 48.6357 32.5865V33.0865ZM49.7255 31.9891C49.7255 32.5928 49.2395 33.0865 48.6357 33.0865V32.5865C48.9591 32.5865 49.2255 32.3209 49.2255 31.9891H49.7255ZM49.7255 29.8106V31.9891H49.2255V29.8106H49.7255ZM50.6956 29.6968C50.5362 29.6968 50.2552 29.7424 50.0094 29.8103C49.8874 29.8441 49.7874 29.8797 49.7228 29.9115C49.7073 29.919 49.6957 29.9255 49.6874 29.9307C49.6788 29.936 49.676 29.9385 49.6771 29.9376C49.6775 29.9372 49.6874 29.9287 49.6983 29.911C49.7097 29.8923 49.7255 29.8577 49.7255 29.8106H49.2255C49.2255 29.6798 49.3083 29.596 49.3476 29.5615C49.395 29.52 49.4514 29.4877 49.5025 29.4626C49.6071 29.4113 49.7407 29.3659 49.8762 29.3284C50.1452 29.254 50.4742 29.1968 50.6956 29.1968V29.6968Z" fill="white"/>
</g>
</g>
</g>
</svg>
